<svg xmlns="http://www.w3.org/2000/svg" width="80.18" height="51.731" viewBox="0 0 80.18 51.731">
  <path id="Icon" d="M14.872,51.729A14.753,14.753,0,0,1,5.76,25.28a12.694,12.694,0,0,1,12.634-12.7,12.461,12.461,0,0,1,5.276,1.17,22.394,22.394,0,0,1,41.807,1.279,18.552,18.552,0,0,1-3.731,36.7H51.184a1.3,1.3,0,0,1,0-2.605H61.746A15.941,15.941,0,0,0,64.29,17.461l-.786-.13-.242-.763a19.821,19.821,0,0,0-37.693-.544l-.533,1.534L23.668,16.7a9.971,9.971,0,0,0-5.274-1.518A10.1,10.1,0,0,0,8.347,25.306l.065,1.088-.6.6a12.145,12.145,0,0,0,6.837,22.128l.264,0c.126,0,.259.008.385,0H29a1.3,1.3,0,0,1,0,2.605H15.368c-.062.005-.138.005-.227.005ZM38.8,50.423V27.476L27.5,38.856a1.289,1.289,0,0,1-1.828,0,1.311,1.311,0,0,1,0-1.842l13.507-13.6,0,0,.913-.919.912.919,0,0,13.505,13.6a1.308,1.308,0,0,1,0,1.842,1.291,1.291,0,0,1-1.829,0l-11.3-11.38V50.423a1.293,1.293,0,1,1-2.586,0Z" fill="#ff5a5a"/>
</svg>
